<?xml version="1.0" encoding="UTF-8" standalone="no"?>
<!DOCTYPE svg PUBLIC "-//W3C//DTD SVG 1.1//EN"
 "http://www.w3.org/Graphics/SVG/1.1/DTD/svg11.dtd">
<!-- Generated by graphviz version 2.42.4 (0)
 -->
<!-- Title: ERP_Scheduling Pages: 1 -->
<svg width="374pt" height="558pt"
 viewBox="0.00 0.00 374.00 558.00" xmlns="http://www.w3.org/2000/svg" xmlns:xlink="http://www.w3.org/1999/xlink">
<g id="graph0" class="graph" transform="scale(1 1) rotate(0) translate(4 554)">
<title>ERP_Scheduling</title>
<polygon fill="white" stroke="transparent" points="-4,4 -4,-554 370,-554 370,4 -4,4"/>
<!-- ProductionJob -->
<g id="node1" class="node">
<title>ProductionJob</title>
<polygon fill="lightgrey" stroke="black" points="158,-98 35,-98 35,0 158,0 158,-98"/>
<text text-anchor="middle" x="96.5" y="-82.8" font-family="Arial" font-size="14.00">ProductionJob</text>
<text text-anchor="middle" x="96.5" y="-67.8" font-family="Arial" font-size="14.00">&#45; JobId</text>
<text text-anchor="middle" x="96.5" y="-52.8" font-family="Arial" font-size="14.00">&#45; JobName</text>
<text text-anchor="middle" x="96.5" y="-37.8" font-family="Arial" font-size="14.00">&#45; StartTime</text>
<text text-anchor="middle" x="96.5" y="-22.8" font-family="Arial" font-size="14.00">&#45; DurationInHours</text>
<text text-anchor="middle" x="96.5" y="-7.8" font-family="Arial" font-size="14.00">+ EndTime</text>
</g>
<!-- JobValidator -->
<g id="node2" class="node">
<title>JobValidator</title>
<polygon fill="lightgrey" stroke="black" points="345.5,-408 249.5,-408 249.5,-370 345.5,-370 345.5,-408"/>
<text text-anchor="middle" x="297.5" y="-392.8" font-family="Arial" font-size="14.00">JobValidator</text>
<text text-anchor="middle" x="297.5" y="-377.8" font-family="Arial" font-size="14.00">+ IsValid(job)</text>
</g>
<!-- SchedulingService -->
<g id="node3" class="node">
<title>SchedulingService</title>
<polygon fill="lightgrey" stroke="black" points="170,-438 23,-438 23,-340 170,-340 170,-438"/>
<text text-anchor="middle" x="96.5" y="-422.8" font-family="Arial" font-size="14.00">SchedulingService</text>
<text text-anchor="middle" x="96.5" y="-407.8" font-family="Arial" font-size="14.00">&#45; ISchedulingStrategy</text>
<text text-anchor="middle" x="96.5" y="-392.8" font-family="Arial" font-size="14.00">&#45; IReportGenerator</text>
<text text-anchor="middle" x="96.5" y="-377.8" font-family="Arial" font-size="14.00">&#45; IDepartmentNotifier</text>
<text text-anchor="middle" x="96.5" y="-362.8" font-family="Arial" font-size="14.00">&#45; JobValidator</text>
<text text-anchor="middle" x="96.5" y="-347.8" font-family="Arial" font-size="14.00">+ ScheduleJobs(jobs)</text>
</g>
<!-- SchedulingService&#45;&gt;JobValidator -->
<g id="edge4" class="edge">
<title>SchedulingService&#45;&gt;JobValidator</title>
<path fill="none" stroke="black" d="M170.19,-389C192.9,-389 217.62,-389 239.12,-389"/>
<polygon fill="black" stroke="black" points="239.4,-392.5 249.4,-389 239.4,-385.5 239.4,-392.5"/>
</g>
<!-- ISchedulingStrategy -->
<g id="node4" class="node">
<title>ISchedulingStrategy</title>
<polygon fill="lightblue" stroke="black" points="366,-501.5 229,-501.5 229,-448.5 366,-448.5 366,-501.5"/>
<text text-anchor="middle" x="297.5" y="-486.3" font-family="Arial" font-size="14.00">&lt;&lt;interface&gt;&gt;</text>
<text text-anchor="middle" x="297.5" y="-471.3" font-family="Arial" font-size="14.00">ISchedulingStrategy</text>
<text text-anchor="middle" x="297.5" y="-456.3" font-family="Arial" font-size="14.00">+ Schedule(jobs)</text>
</g>
<!-- SchedulingService&#45;&gt;ISchedulingStrategy -->
<g id="edge1" class="edge">
<title>SchedulingService&#45;&gt;ISchedulingStrategy</title>
<path fill="none" stroke="black" d="M170.19,-420.41C188.34,-428.26 207.78,-436.66 225.84,-444.46"/>
<polygon fill="black" stroke="black" points="224.57,-447.73 235.14,-448.48 227.34,-441.3 224.57,-447.73"/>
</g>
<!-- IReportGenerator -->
<g id="node5" class="node">
<title>IReportGenerator</title>
<polygon fill="lightblue" stroke="black" points="358.5,-329.5 236.5,-329.5 236.5,-276.5 358.5,-276.5 358.5,-329.5"/>
<text text-anchor="middle" x="297.5" y="-314.3" font-family="Arial" font-size="14.00">&lt;&lt;interface&gt;&gt;</text>
<text text-anchor="middle" x="297.5" y="-299.3" font-family="Arial" font-size="14.00">IReportGenerator</text>
<text text-anchor="middle" x="297.5" y="-284.3" font-family="Arial" font-size="14.00">+ Generate(jobs)</text>
</g>
<!-- SchedulingService&#45;&gt;IReportGenerator -->
<g id="edge2" class="edge">
<title>SchedulingService&#45;&gt;IReportGenerator</title>
<path fill="none" stroke="black" d="M170.19,-357.59C188.8,-349.54 208.77,-340.91 227.21,-332.94"/>
<polygon fill="black" stroke="black" points="228.62,-336.15 236.42,-328.97 225.85,-329.72 228.62,-336.15"/>
</g>
<!-- IDepartmentNotifier -->
<g id="node6" class="node">
<title>IDepartmentNotifier</title>
<polygon fill="lightblue" stroke="black" points="364.5,-217.5 230.5,-217.5 230.5,-164.5 364.5,-164.5 364.5,-217.5"/>
<text text-anchor="middle" x="297.5" y="-202.3" font-family="Arial" font-size="14.00">&lt;&lt;interface&gt;&gt;</text>
<text text-anchor="middle" x="297.5" y="-187.3" font-family="Arial" font-size="14.00">IDepartmentNotifier</text>
<text text-anchor="middle" x="297.5" y="-172.3" font-family="Arial" font-size="14.00">+ Notify(jobs)</text>
</g>
<!-- SchedulingService&#45;&gt;IDepartmentNotifier -->
<g id="edge3" class="edge">
<title>SchedulingService&#45;&gt;IDepartmentNotifier</title>
<path fill="none" stroke="black" d="M170.35,-350.27C178.47,-344.4 186.23,-337.95 193,-331 215.5,-307.89 210.28,-294.26 229,-268 239.43,-253.38 252.14,-238.3 263.71,-225.41"/>
<polygon fill="black" stroke="black" points="266.59,-227.44 270.73,-217.69 261.41,-222.73 266.59,-227.44"/>
</g>
<!-- ForwardSchedulingStrategy -->
<g id="node7" class="node">
<title>ForwardSchedulingStrategy</title>
<polygon fill="lightgrey" stroke="black" points="188,-494 5,-494 5,-456 188,-456 188,-494"/>
<text text-anchor="middle" x="96.5" y="-478.8" font-family="Arial" font-size="14.00">ForwardSchedulingStrategy</text>
<text text-anchor="middle" x="96.5" y="-463.8" font-family="Arial" font-size="14.00">+ Schedule(jobs)</text>
</g>
<!-- ForwardSchedulingStrategy&#45;&gt;ISchedulingStrategy -->
<g id="edge5" class="edge">
<title>ForwardSchedulingStrategy&#45;&gt;ISchedulingStrategy</title>
<path fill="none" stroke="black" d="M188.26,-475C198.38,-475 208.62,-475 218.56,-475"/>
<polygon fill="black" stroke="black" points="218.79,-478.5 228.79,-475 218.79,-471.5 218.79,-478.5"/>
</g>
<!-- BackwardSchedulingStrategy -->
<g id="node8" class="node">
<title>BackwardSchedulingStrategy</title>
<polygon fill="lightgrey" stroke="black" points="193,-550 0,-550 0,-512 193,-512 193,-550"/>
<text text-anchor="middle" x="96.5" y="-534.8" font-family="Arial" font-size="14.00">BackwardSchedulingStrategy</text>
<text text-anchor="middle" x="96.5" y="-519.8" font-family="Arial" font-size="14.00">+ Schedule(jobs)</text>
</g>
<!-- BackwardSchedulingStrategy&#45;&gt;ISchedulingStrategy -->
<g id="edge6" class="edge">
<title>BackwardSchedulingStrategy&#45;&gt;ISchedulingStrategy</title>
<path fill="none" stroke="black" d="M165.15,-511.96C182.45,-507.09 201.19,-501.82 218.95,-496.82"/>
<polygon fill="black" stroke="black" points="220.02,-500.16 228.7,-494.08 218.12,-493.42 220.02,-500.16"/>
</g>
<!-- GanttChartReportGenerator -->
<g id="node9" class="node">
<title>GanttChartReportGenerator</title>
<polygon fill="lightgrey" stroke="black" points="189,-266 4,-266 4,-228 189,-228 189,-266"/>
<text text-anchor="middle" x="96.5" y="-250.8" font-family="Arial" font-size="14.00">GanttChartReportGenerator</text>
<text text-anchor="middle" x="96.5" y="-235.8" font-family="Arial" font-size="14.00">+ Generate(jobs)</text>
</g>
<!-- GanttChartReportGenerator&#45;&gt;IReportGenerator -->
<g id="edge7" class="edge">
<title>GanttChartReportGenerator&#45;&gt;IReportGenerator</title>
<path fill="none" stroke="black" d="M165.15,-266.04C185,-271.62 206.74,-277.74 226.72,-283.36"/>
<polygon fill="black" stroke="black" points="225.8,-286.74 236.37,-286.08 227.7,-280 225.8,-286.74"/>
</g>
<!-- TextReportGenerator -->
<g id="node10" class="node">
<title>TextReportGenerator</title>
<polygon fill="lightgrey" stroke="black" points="168,-322 25,-322 25,-284 168,-284 168,-322"/>
<text text-anchor="middle" x="96.5" y="-306.8" font-family="Arial" font-size="14.00">TextReportGenerator</text>
<text text-anchor="middle" x="96.5" y="-291.8" font-family="Arial" font-size="14.00">+ Generate(jobs)</text>
</g>
<!-- TextReportGenerator&#45;&gt;IReportGenerator -->
<g id="edge8" class="edge">
<title>TextReportGenerator&#45;&gt;IReportGenerator</title>
<path fill="none" stroke="black" d="M168.22,-303C186.98,-303 207.23,-303 225.98,-303"/>
<polygon fill="black" stroke="black" points="226.22,-306.5 236.22,-303 226.22,-299.5 226.22,-306.5"/>
</g>
<!-- ProductionNotifier -->
<g id="node11" class="node">
<title>ProductionNotifier</title>
<polygon fill="lightgrey" stroke="black" points="172.5,-154 20.5,-154 20.5,-116 172.5,-116 172.5,-154"/>
<text text-anchor="middle" x="96.5" y="-138.8" font-family="Arial" font-size="14.00">ProductionDeptNotifier</text>
<text text-anchor="middle" x="96.5" y="-123.8" font-family="Arial" font-size="14.00">+ Notify(jobs)</text>
</g>
<!-- ProductionNotifier&#45;&gt;IDepartmentNotifier -->
<g id="edge9" class="edge">
<title>ProductionNotifier&#45;&gt;IDepartmentNotifier</title>
<path fill="none" stroke="black" d="M165.15,-154.04C183.01,-159.06 202.4,-164.52 220.66,-169.66"/>
<polygon fill="black" stroke="black" points="219.81,-173.06 230.39,-172.39 221.71,-166.32 219.81,-173.06"/>
</g>
<!-- QANotifier -->
<g id="node12" class="node">
<title>QANotifier</title>
<polygon fill="lightgrey" stroke="black" points="172,-210 21,-210 21,-172 172,-172 172,-210"/>
<text text-anchor="middle" x="96.5" y="-194.8" font-family="Arial" font-size="14.00">QADepartmentNotifier</text>
<text text-anchor="middle" x="96.5" y="-179.8" font-family="Arial" font-size="14.00">+ Notify(jobs)</text>
</g>
<!-- QANotifier&#45;&gt;IDepartmentNotifier -->
<g id="edge10" class="edge">
<title>QANotifier&#45;&gt;IDepartmentNotifier</title>
<path fill="none" stroke="black" d="M172.17,-191C187.82,-191 204.34,-191 220.06,-191"/>
<polygon fill="black" stroke="black" points="220.25,-194.5 230.25,-191 220.25,-187.5 220.25,-194.5"/>
</g>
</g>
</svg>
